<svg width="26" height="26" viewBox="0 0 26 26" fill="none" xmlns="http://www.w3.org/2000/svg">
<path d="M15.1667 6.49999H9.75C8.37319 6.50383 7.03316 6.94475 5.92308 7.7592C4.813 8.57364 3.9902 9.71955 3.57329 11.0317C3.15638 12.3439 3.1669 13.7546 3.60333 15.0604C4.03976 16.3662 4.87956 17.4997 6.00167 18.2975" stroke="#231F20" stroke-width="2" stroke-linecap="round" stroke-linejoin="round"/>
<path d="M10.8333 19.5H16.25C17.6268 19.4962 18.9668 19.0552 20.0769 18.2408C21.187 17.4263 22.0098 16.2804 22.4267 14.9683C22.8436 13.6561 22.8331 12.2454 22.3966 10.9396C21.9602 9.63381 21.1204 8.5003 19.9983 7.7025" stroke="#231F20" stroke-width="2" stroke-linecap="round" stroke-linejoin="round"/>
<path d="M13 8.66663L15.1667 6.49996L13 4.33329" stroke="#231F20" stroke-width="2" stroke-linecap="round" stroke-linejoin="round"/>
<path d="M13 17.3333L10.8333 19.5L13 21.6666" stroke="#231F20" stroke-width="2" stroke-linecap="round" stroke-linejoin="round"/>
</svg>
