<svg width="22" height="17" viewBox="0 0 22 17" fill="none" xmlns="http://www.w3.org/2000/svg">
<path d="M1.75 17C1.26667 17 0.854167 16.8309 0.5125 16.4927C0.170833 16.1545 0 15.7462 0 15.2678C0 14.7894 0.170833 14.3811 0.5125 14.0429C0.854167 13.7048 1.26667 13.5357 1.75 13.5357C1.83333 13.5357 1.91667 13.5398 2 13.548C2.08333 13.5563 2.19167 13.5769 2.325 13.6099L7.325 8.66084C7.29167 8.52887 7.27083 8.42164 7.2625 8.33916C7.25417 8.25667 7.25 8.17419 7.25 8.0917C7.25 7.6133 7.42083 7.205 7.7625 6.86681C8.10417 6.52863 8.51667 6.35953 9 6.35953C9.48333 6.35953 9.89583 6.52863 10.2375 6.86681C10.5792 7.205 10.75 7.6133 10.75 8.0917C10.75 8.1247 10.725 8.31441 10.675 8.66084L13.425 11.3828C13.5583 11.3498 13.6667 11.3292 13.75 11.321C13.8333 11.3127 13.9167 11.3086 14 11.3086C14.0833 11.3086 14.1667 11.3127 14.25 11.321C14.3333 11.3292 14.4417 11.3498 14.575 11.3828L18.575 7.42358C18.5417 7.29161 18.5208 7.18438 18.5125 7.10189C18.5042 7.01941 18.5 6.93692 18.5 6.85444C18.5 6.37603 18.6708 5.96773 19.0125 5.62955C19.3542 5.29136 19.7667 5.12227 20.25 5.12227C20.7333 5.12227 21.1458 5.29136 21.4875 5.62955C21.8292 5.96773 22 6.37603 22 6.85444C22 7.33285 21.8292 7.74115 21.4875 8.07933C21.1458 8.41752 20.7333 8.58661 20.25 8.58661C20.1667 8.58661 20.0833 8.58249 20 8.57424C19.9167 8.56599 19.8083 8.54537 19.675 8.51237L15.675 12.4716C15.7083 12.6036 15.7292 12.7108 15.7375 12.7933C15.7458 12.8758 15.75 12.9583 15.75 13.0408C15.75 13.5192 15.5792 13.9275 15.2375 14.2656C14.8958 14.6038 14.4833 14.7729 14 14.7729C13.5167 14.7729 13.1042 14.6038 12.7625 14.2656C12.4208 13.9275 12.25 13.5192 12.25 13.0408C12.25 12.9583 12.2542 12.8758 12.2625 12.7933C12.2708 12.7108 12.2917 12.6036 12.325 12.4716L9.575 9.74964C9.44167 9.78263 9.33333 9.80325 9.25 9.8115C9.16667 9.81975 9.08333 9.82387 9 9.82387C8.96667 9.82387 8.775 9.79913 8.425 9.74964L3.425 14.6987C3.45833 14.8307 3.47917 14.9379 3.4875 15.0204C3.49583 15.1029 3.5 15.1853 3.5 15.2678C3.5 15.7462 3.32917 16.1545 2.9875 16.4927C2.64583 16.8309 2.23333 17 1.75 17ZM3 6.06259L2.5 4.9738L1.4 4.47889L2.5 3.98399L3 2.8952L3.5 3.98399L4.6 4.47889L3.5 4.9738L3 6.06259ZM14 4.80058L13.225 3.16739L11.575 2.40029L13.225 1.63319L14 0L14.775 1.63319L16.425 2.40029L14.775 3.16739L14 4.80058Z" fill="#231F20"/>
</svg>
