<svg width="18" height="17" viewBox="0 0 18 17" fill="none" xmlns="http://www.w3.org/2000/svg">
<path d="M9 8.21256C7.7625 8.21256 6.75 7.82931 5.9625 7.0628C5.175 6.2963 4.78125 5.31079 4.78125 4.10628C4.78125 2.90177 5.175 1.91626 5.9625 1.14976C6.75 0.383253 7.7625 0 9 0C10.2375 0 11.25 0.383253 12.0375 1.14976C12.825 1.91626 13.2188 2.90177 13.2188 4.10628C13.2188 5.31079 12.825 6.2963 12.0375 7.0628C11.25 7.82931 10.2375 8.21256 9 8.21256ZM16.3125 17H1.6875C1.21875 17 0.820312 16.8403 0.492188 16.5209C0.164063 16.2016 0 15.8137 0 15.3575V14.4267C0 13.7332 0.178125 13.1401 0.534375 12.6473C0.890625 12.1546 1.35 11.7805 1.9125 11.525C3.16875 10.9775 4.37344 10.5668 5.52656 10.2931C6.67969 10.0193 7.8375 9.88245 9 9.88245C10.1625 9.88245 11.3156 10.0239 12.4594 10.3068C13.6031 10.5896 14.8031 10.9957 16.0594 11.525C16.6406 11.7805 17.1094 12.1546 17.4656 12.6473C17.8219 13.1401 18 13.7332 18 14.4267V15.3575C18 15.8137 17.8359 16.2016 17.5078 16.5209C17.1797 16.8403 16.7812 17 16.3125 17ZM1.6875 15.3575H16.3125V14.4267C16.3125 14.1347 16.2234 13.8564 16.0453 13.5918C15.8672 13.3272 15.6469 13.131 15.3844 13.0032C14.1844 12.4375 13.0875 12.0497 12.0938 11.8398C11.1 11.6299 10.0688 11.525 9 11.525C7.93125 11.525 6.89063 11.6299 5.87813 11.8398C4.86563 12.0497 3.76875 12.4375 2.5875 13.0032C2.325 13.131 2.10938 13.3272 1.94062 13.5918C1.77187 13.8564 1.6875 14.1347 1.6875 14.4267V15.3575ZM9 6.57005C9.73125 6.57005 10.3359 6.33736 10.8141 5.87198C11.2922 5.4066 11.5312 4.81804 11.5312 4.10628C11.5312 3.39453 11.2922 2.80596 10.8141 2.34058C10.3359 1.8752 9.73125 1.64251 9 1.64251C8.26875 1.64251 7.66406 1.8752 7.18594 2.34058C6.70781 2.80596 6.46875 3.39453 6.46875 4.10628C6.46875 4.81804 6.70781 5.4066 7.18594 5.87198C7.66406 6.33736 8.26875 6.57005 9 6.57005Z" fill="#231F20"/>
</svg>
