<svg width="27" height="18" viewBox="0 0 27 18" fill="none" xmlns="http://www.w3.org/2000/svg">
<path d="M8.17495 17.1L0.787451 9.75001C0.662451 9.62501 0.574951 9.50001 0.524951 9.37501C0.474951 9.25001 0.449951 9.11251 0.449951 8.96251C0.449951 8.81251 0.474951 8.67501 0.524951 8.55001C0.574951 8.42501 0.662451 8.30001 0.787451 8.17501L8.17495 0.78751C8.37495 0.58751 8.63745 0.48126 8.96245 0.46876C9.28745 0.45626 9.56245 0.56251 9.78745 0.78751C10.0125 1.01251 10.125 1.28126 10.125 1.59376C10.125 1.90626 10.0125 2.17501 9.78745 2.40001L4.34995 7.83751H25.875C26.2 7.83751 26.4687 7.94376 26.6812 8.15626C26.8937 8.36876 27 8.63751 27 8.96251C27 9.28751 26.8937 9.55626 26.6812 9.76876C26.4687 9.98126 26.2 10.0875 25.875 10.0875H4.34995L9.78745 15.525C9.98745 15.725 10.0937 15.9813 10.1062 16.2938C10.1187 16.6063 10.0125 16.875 9.78745 17.1C9.56245 17.325 9.2937 17.4375 8.9812 17.4375C8.6687 17.4375 8.39995 17.325 8.17495 17.1Z" fill="white"/>
</svg>
