<svg width="13" height="16" viewBox="0 0 13 16" fill="none" xmlns="http://www.w3.org/2000/svg">
<path d="M2.16565 15.5C1.84898 15.5 1.5719 15.375 1.3344 15.125C1.0969 14.875 0.978145 14.5833 0.978145 14.25V2.375H0.760437C0.588909 2.375 0.447069 2.31597 0.334916 2.19792C0.222763 2.07986 0.166687 1.93056 0.166687 1.75C0.166687 1.56944 0.222763 1.42014 0.334916 1.30208C0.447069 1.18403 0.588909 1.125 0.760437 1.125H3.88752C3.88752 0.944444 3.9436 0.795139 4.05575 0.677083C4.1679 0.559028 4.30974 0.5 4.48127 0.5H8.51877C8.6903 0.5 8.83214 0.559028 8.94429 0.677083C9.05644 0.795139 9.11252 0.944444 9.11252 1.125H12.2396C12.4111 1.125 12.553 1.18403 12.6651 1.30208C12.7773 1.42014 12.8334 1.56944 12.8334 1.75C12.8334 1.93056 12.7773 2.07986 12.6651 2.19792C12.553 2.31597 12.4111 2.375 12.2396 2.375H12.0219V14.25C12.0219 14.5833 11.9031 14.875 11.6656 15.125C11.4281 15.375 11.1511 15.5 10.8344 15.5H2.16565ZM2.16565 2.375V14.25H10.8344V2.375H2.16565ZM4.26356 11.8333C4.26356 12.0139 4.31964 12.1632 4.43179 12.2812C4.54394 12.3993 4.68578 12.4583 4.85731 12.4583C5.02884 12.4583 5.17068 12.3993 5.28283 12.2812C5.39499 12.1632 5.45106 12.0139 5.45106 11.8333V4.77083C5.45106 4.59028 5.39499 4.44097 5.28283 4.32292C5.17068 4.20486 5.02884 4.14583 4.85731 4.14583C4.68578 4.14583 4.54394 4.20486 4.43179 4.32292C4.31964 4.44097 4.26356 4.59028 4.26356 4.77083V11.8333ZM7.54898 11.8333C7.54898 12.0139 7.60505 12.1632 7.71721 12.2812C7.82936 12.3993 7.9712 12.4583 8.14273 12.4583C8.31426 12.4583 8.4561 12.3993 8.56825 12.2812C8.6804 12.1632 8.73648 12.0139 8.73648 11.8333V4.77083C8.73648 4.59028 8.6804 4.44097 8.56825 4.32292C8.4561 4.20486 8.31426 4.14583 8.14273 4.14583C7.9712 4.14583 7.82936 4.20486 7.71721 4.32292C7.60505 4.44097 7.54898 4.59028 7.54898 4.77083V11.8333ZM2.16565 2.375V14.25V2.375Z" fill="#DA291C"/>
</svg>
