<svg width="15" height="16" viewBox="0 0 15 16" fill="none" xmlns="http://www.w3.org/2000/svg">
<path d="M1.5625 14.25H2.43333L11.201 5.02081L10.3302 4.10414L1.5625 13.3333V14.25ZM13.7146 4.12497L11.1812 1.45831L12.0125 0.583305C12.2368 0.347194 12.5172 0.232611 12.8536 0.239555C13.1901 0.2465 13.4705 0.368028 13.6948 0.604139L14.5458 1.49997C14.7701 1.73608 14.8823 2.02775 14.8823 2.37497C14.8823 2.72219 14.7701 3.01386 14.5458 3.24997L13.7146 4.12497ZM0.96875 15.5C0.797222 15.5 0.655382 15.4409 0.543229 15.3229C0.431076 15.2048 0.375 15.0555 0.375 14.875V13.0833C0.375 13 0.388194 12.9236 0.414583 12.8541C0.440972 12.7847 0.487153 12.7153 0.553125 12.6458L10.35 2.33331L12.8833 4.99997L3.08646 15.3125C3.02049 15.3819 2.95451 15.4305 2.88854 15.4583C2.82257 15.4861 2.75 15.5 2.67083 15.5H0.96875ZM10.7656 4.56247L10.3302 4.10414L11.201 5.02081L10.7656 4.56247Z" fill="#DA291C"/>
</svg>
