<svg width="19" height="13" viewBox="0 0 19 13" fill="none" xmlns="http://www.w3.org/2000/svg">
<path d="M9.50003 10.1249C10.4368 10.1249 11.2318 9.78117 11.8849 9.09367C12.538 8.40617 12.8646 7.56936 12.8646 6.58325C12.8646 5.59714 12.538 4.76034 11.8849 4.07284C11.2318 3.38534 10.4368 3.04159 9.50003 3.04159C8.56322 3.04159 7.76826 3.38534 7.11513 4.07284C6.46201 4.76034 6.13544 5.59714 6.13544 6.58325C6.13544 7.56936 6.46201 8.40617 7.11513 9.09367C7.76826 9.78117 8.56322 10.1249 9.50003 10.1249ZM9.50003 8.91658C8.87989 8.91658 8.35541 8.69089 7.92659 8.2395C7.49777 7.78811 7.28336 7.23603 7.28336 6.58325C7.28336 5.93047 7.49777 5.37839 7.92659 4.927C8.35541 4.47561 8.87989 4.24992 9.50003 4.24992C10.1202 4.24992 10.6446 4.47561 11.0735 4.927C11.5023 5.37839 11.7167 5.93047 11.7167 6.58325C11.7167 7.23603 11.5023 7.78811 11.0735 8.2395C10.6446 8.69089 10.1202 8.91658 9.50003 8.91658ZM9.50003 12.8333C7.67919 12.8333 6.01999 12.3124 4.52242 11.2708C3.02486 10.2291 1.86704 8.85408 1.04899 7.14575C1.0094 7.07631 0.979716 6.99297 0.959924 6.89575C0.940133 6.79853 0.930237 6.69436 0.930237 6.58325C0.930237 6.47214 0.940133 6.36797 0.959924 6.27075C0.979716 6.17353 1.0094 6.0902 1.04899 6.02075C1.86704 4.31242 3.02486 2.93742 4.52242 1.89575C6.01999 0.854085 7.67919 0.333252 9.50003 0.333252C11.3209 0.333252 12.9801 0.854085 14.4776 1.89575C15.9752 2.93742 17.133 4.31242 17.9511 6.02075C17.9907 6.0902 18.0203 6.17353 18.0401 6.27075C18.0599 6.36797 18.0698 6.47214 18.0698 6.58325C18.0698 6.69436 18.0599 6.79853 18.0401 6.89575C18.0203 6.99297 17.9907 7.07631 17.9511 7.14575C17.133 8.85408 15.9752 10.2291 14.4776 11.2708C12.9801 12.3124 11.3209 12.8333 9.50003 12.8333ZM9.50003 11.5833C11.0966 11.5833 12.5644 11.1284 13.9037 10.2187C15.2429 9.30895 16.2622 8.09714 16.9615 6.58325C16.2622 5.06936 15.2429 3.85756 13.9037 2.94783C12.5644 2.03811 11.0966 1.58325 9.50003 1.58325C7.9035 1.58325 6.43562 2.03811 5.09638 2.94783C3.75715 3.85756 2.73128 5.06936 2.01878 6.58325C2.73128 8.09714 3.75715 9.30895 5.09638 10.2187C6.43562 11.1284 7.9035 11.5833 9.50003 11.5833Z" fill="#DA291C"/>
</svg>
